<svg width="525" height="419" viewBox="0 0 525 419" fill="none" xmlns="http://www.w3.org/2000/svg">
<g clip-path="url(#clip0_11_30)">
<path d="M442.174 400.477C444.24 400.606 445.38 398.038 443.817 396.543L443.661 395.925C443.682 395.875 443.702 395.826 443.723 395.777C444.955 392.837 448.348 391.445 451.294 392.663C460.608 396.514 450.775 405.363 451.514 411.351C451.773 413.417 459.868 413.531 459.411 415.559C463.715 406.147 465.979 395.87 465.975 385.536C465.974 382.94 465.831 380.343 465.54 377.753C465.3 375.635 464.97 373.529 464.543 371.443C462.233 360.167 457.237 349.428 450.032 340.459C446.57 338.567 448.681 335.608 446.936 332.063C446.309 330.785 440.718 330.756 440.485 329.354C440.736 329.387 444.35 325.633 443.156 323.778C442.37 322.557 442.615 321.001 443.624 319.957C443.723 319.855 443.816 319.747 443.902 319.631C446.883 315.587 450.992 316.291 453.139 321.785C457.722 324.096 457.768 327.932 454.957 331.621C453.169 333.969 452.925 337.144 451.356 339.657C451.517 339.864 451.686 340.064 451.847 340.271C454.809 344.068 457.372 348.149 459.532 352.437C458.92 347.671 459.819 341.928 461.354 338.226C463.113 333.978 466.423 330.404 469.323 326.73C472.785 322.341 479.833 324.333 480.445 329.889C480.451 329.943 480.457 329.996 480.463 330.049C480.034 330.291 479.614 330.549 479.203 330.82C476.865 332.368 477.675 335.995 480.447 336.421L480.51 336.431C480.356 337.974 474.878 342.837 474.491 344.343C478.196 358.651 475.423 360.54 464.024 360.78L463.426 361.632C464.506 364.738 465.376 367.918 466.028 371.139C466.643 374.129 467.07 377.152 467.31 380.188C467.609 384.018 467.584 387.867 467.263 391.691L467.282 391.555C468.101 387.344 470.386 383.41 473.705 380.683C478.649 376.618 485.636 375.12 490.97 371.853C493.538 370.28 496.83 372.31 496.382 375.288L496.361 375.43C495.566 375.753 494.791 376.128 494.042 376.548C493.613 376.791 493.193 377.048 492.782 377.32C490.443 378.869 491.254 382.495 494.027 382.92L494.09 382.93C494.135 382.936 494.174 382.943 494.219 382.949C492.857 386.186 479.883 390.751 477.508 393.342C475.197 405.839 476.332 405.467 465.697 401.832H465.69C464.529 406.896 462.832 411.844 460.651 416.56L442.631 416.566C442.566 416.366 442.508 416.159 442.45 415.959C444.116 416.062 445.795 415.964 447.436 415.66C446.098 414.02 444.761 412.367 443.423 410.727C443.391 410.695 443.365 410.662 443.339 410.63L443.319 410.605L441.464 404.498C441.61 403.143 441.849 401.799 442.173 400.477L442.174 400.477V400.477V400.477Z" fill="#F2F2F2"/>
<path d="M251.744 416.42L92.2874 416.475C84.2767 416.478 77.101 412.338 73.0932 405.402C71.0891 401.934 70.0868 398.129 70.0855 394.323C70.0841 390.518 71.0843 386.712 73.0855 383.243L152.763 238.194C156.767 231.254 163.94 227.11 171.95 227.107C179.961 227.105 187.137 231.244 191.145 238.18L270.934 383.192C272.932 386.652 273.932 390.452 273.933 394.255C273.932 398.058 272.933 401.864 270.931 405.334C266.928 412.273 259.755 416.417 251.744 416.42H251.744H251.744ZM72.0898 394.321C72.0896 397.785 89.6851 390.32 91.508 393.476C95.1542 399.786 84.9987 414.478 92.2868 414.475C92.2868 414.475 265.557 410.647 269.199 404.335C271.019 401.178 271.929 397.715 271.928 394.254C271.927 390.792 271.015 387.33 269.191 384.175L189.403 239.163C185.767 232.871 179.239 229.105 171.951 229.107C164.666 229.11 72.0901 390.856 72.0898 394.321H72.0898V394.321Z" fill="#3F3D56"/>
<path d="M253.515 414.419C251.517 418.42 345.129 417.19 346.236 417.19C346.236 417.19 372.548 416.609 373.101 415.65C373.377 415.171 373.516 414.645 373.515 414.119C373.515 413.594 373.377 413.068 373.1 412.589L360.983 390.568C360.431 389.612 359.44 389.041 358.333 389.041C358.287 389.041 358.219 389.082 358.132 389.16C341.968 403.604 322.049 413.153 300.375 413.475C277.328 413.818 253.642 414.165 253.515 414.419H253.515V414.419Z" fill="#3F3D56"/>
<path d="M7.48514e-08 417.081C0.000230075 417.741 0.53044 418.271 1.19047 418.271L523.48 418.09C524.14 418.09 524.67 417.56 524.67 416.9C524.67 416.24 524.14 415.71 523.48 415.71L1.18965 415.891C0.52962 415.891 -0.000229925 416.421 7.48513e-08 417.081H7.48514e-08Z" fill="#CCCCCC"/>
<path d="M403.878 411.305L394.833 411.307L390.519 376.422L403.868 376.418L403.878 411.305Z" fill="#A0616A"/>
<path d="M372.889 411.11C372.608 411.585 372.46 413.116 372.46 413.667C372.461 415.363 373.835 416.737 375.531 416.736L403.541 416.726C404.698 416.726 405.635 415.788 405.635 414.631L405.634 413.465C405.634 413.465 407.019 409.96 404.165 405.641C404.165 405.641 400.62 409.025 395.32 403.728L393.757 400.898L382.45 409.174L376.182 409.947C374.81 410.117 373.594 409.922 372.889 411.11H372.889V411.11Z" fill="#2F2E41"/>
<path d="M369.197 381.467L360.63 384.366L345.369 352.7L358.014 348.421L369.197 381.467Z" fill="#A0616A"/>
<path d="M339.778 391.208C339.664 391.747 340.014 393.245 340.191 393.768C340.734 395.373 342.477 396.235 344.083 395.691L370.615 386.711C371.71 386.34 372.298 385.151 371.927 384.056L371.553 382.951C371.553 382.951 371.742 379.187 367.655 376.01C367.655 376.01 365.381 380.351 358.663 377.031L356.276 374.851L348.215 386.311L342.525 389.052C341.28 389.651 340.066 389.856 339.779 391.208L339.778 391.208V391.208Z" fill="#2F2E41"/>
<path d="M355.226 179.09L337.683 237.191L316.972 289.452L349.761 364.086L361.918 358.677L347.371 290.117L377.878 243.594L392.115 388.826L404.274 388.147L420.763 212.843L423.114 174.676L355.226 179.09Z" fill="#2F2E41"/>
<path d="M408.21 50.3848L382.542 55.1223L380.519 66.6068L364.985 74.0429L356.908 158.486C356.908 158.486 343.403 176.054 354.213 181.454L423.114 174.675C423.114 174.675 426.487 162.185 423.109 161C419.731 159.815 419.721 129.98 419.721 129.98L435.237 68.6145L412.266 60.5162L408.21 50.3848Z" fill="#E6E6E6"/>
<path d="M393.07 50.1632C404.517 50.1632 413.797 40.8831 413.797 29.4356C413.797 17.9881 404.517 8.70801 393.07 8.70801C381.622 8.70801 372.342 17.9881 372.342 29.4356C372.342 40.8831 381.622 50.1632 393.07 50.1632Z" fill="#A0616A"/>
<path d="M406.796 32.5123C405.142 33.4178 406.711 37.741 405.677 38.1147C404.483 38.5467 400.126 33.5876 400.072 28.033C400.056 26.3518 400.442 25.5446 400.07 23.5513C399.584 20.944 398.09 17.8688 396.707 17.9504C395.888 17.9988 395.087 19.1577 395.027 20.1918C394.944 21.6412 396.352 22.2117 396.149 22.9925C395.762 24.4796 389.85 25.5063 387.746 22.9954C386.096 21.0269 387.361 17.5707 386.623 17.3937C386.08 17.2633 385.496 19.1661 383.263 21.3163C382.422 22.1264 381.172 23.3312 380.463 22.9979C379.439 22.5162 380.183 19.1217 379.901 19.0766C379.668 19.0394 379.522 21.4253 378.222 23.5589C376.553 26.2999 373.108 28.4126 371.501 27.4826C370.517 26.9129 370.439 25.3266 370.38 24.1218C370.255 21.5836 366.567 15.7454 367.521 13.0301C369.463 7.50384 372.791 11.3994 374.296 9.5551C376.334 7.05841 378.162 8.40076 381.577 5.63114C384.914 2.9255 384.943 0.206102 387.177 0.027142C389.19 -0.134018 389.905 2.01242 392.22 1.70601C394.181 1.44644 394.607 -0.218348 396.141 0.024032C397.545 0.245932 397.637 1.71252 399.503 2.26369C400.694 2.61557 400.955 2.10626 402.304 2.26272C405.109 2.58828 406.994 5.14355 407.347 5.62221C408.708 7.46747 408.18 8.24562 409.589 10.1031C410.805 11.7049 413.498 11.0247 414.511 11.8247C417.82 14.4388 419.242 19.2597 419.271 24.7543C419.291 28.5974 418.79 30.5391 417.672 35.39C416.823 39.0734 412.89 43.8333 410.722 45.9559C410.14 46.5256 408.508 48.1229 407.361 47.6376C406.274 47.1778 406.241 45.11 406.24 44.837C406.235 43.898 406.485 42.7361 408.479 39.7944C410.573 36.7043 411.405 36.3517 411.278 35.3117C411.054 33.4736 408.114 31.7905 406.796 32.5123H406.796V32.5123Z" fill="#2F2E41"/>
<path d="M334.495 225.76C333.849 231.163 336.114 235.875 339.552 236.286C342.99 236.696 346.3 232.649 346.945 227.247C347.227 224.882 346.952 222.649 346.265 220.852L348.712 197.925L337.928 197.006L336.661 219.705C335.57 221.29 334.777 223.395 334.495 225.76H334.495H334.495Z" fill="#A0616A"/>
<path d="M365.491 73.4981C365.491 73.4981 359.904 73.5775 356.205 80.8019C354.24 84.6409 343.723 156.43 343.723 156.43L334.036 215.238L350.538 215.321L363.397 159.628L374.214 127.327L365.491 73.498L365.491 73.4981Z" fill="#E6E6E6"/>
<path d="M411.929 217.13C410.349 222.337 411.754 227.372 415.067 228.378C418.38 229.384 422.347 225.978 423.927 220.772C424.619 218.493 424.739 216.246 424.377 214.356L430.796 192.211L420.34 189.42L415.121 211.547C413.77 212.917 412.621 214.851 411.929 217.13V217.13V217.13Z" fill="#A0616A"/>
<path d="M423.416 69.6318C423.416 69.6318 431.52 63.5493 438.278 73.0042C445.037 82.4592 447.766 160.143 447.766 160.143L428.868 208.111L414.68 203.388L428.17 144.613L404.512 100.037L423.416 69.6318H423.416V69.6318Z" fill="#E6E6E6"/>
<path d="M218.479 384.432C258.796 384.432 291.479 351.748 291.479 311.432C291.479 271.115 258.796 238.432 218.479 238.432C178.163 238.432 145.479 271.115 145.479 311.432C145.479 351.748 178.163 384.432 218.479 384.432Z" fill="#D95650"/>
<path d="M218.493 356.182C222.194 356.182 225.195 353.181 225.195 349.479C225.195 345.777 222.194 342.776 218.493 342.776C214.791 342.776 211.79 345.777 211.79 349.479C211.79 353.181 214.791 356.182 218.493 356.182Z" fill="white"/>
<path d="M218.464 266.681C217.849 270.773 218.952 271.629 218.958 289.266C218.964 306.904 222.624 330.552 218.486 330.554C214.349 330.555 212.836 281.751 198.47 277.431C181.579 272.353 220.457 253.437 218.464 266.681V266.681Z" fill="white"/>
<path d="M120.503 348.702L113.908 362.637C121.881 356.92 134.335 351.991 144.246 349.352C135.012 344.891 123.712 337.7 116.962 330.58L120.756 345.304C76.2816 336.246 44.3441 302.128 44.3306 263.045L42.7241 262.492C42.7382 303.315 74.2338 339.453 120.503 348.702V348.702Z" fill="#3F3D56"/>
<path d="M61.42 127V106H63.25L77.74 124.24H76.78V106H78.97V127H77.14L62.68 108.76H63.64V127H61.42ZM91.7943 127.15C90.2743 127.15 88.9043 126.81 87.6843 126.13C86.4843 125.43 85.5343 124.48 84.8343 123.28C84.1343 122.06 83.7843 120.67 83.7843 119.11C83.7843 117.53 84.1343 116.14 84.8343 114.94C85.5343 113.74 86.4843 112.8 87.6843 112.12C88.8843 111.44 90.2543 111.1 91.7943 111.1C93.3543 111.1 94.7343 111.44 95.9343 112.12C97.1543 112.8 98.1043 113.74 98.7843 114.94C99.4843 116.14 99.8343 117.53 99.8343 119.11C99.8343 120.67 99.4843 122.06 98.7843 123.28C98.1043 124.48 97.1543 125.43 95.9343 126.13C94.7143 126.81 93.3343 127.15 91.7943 127.15ZM91.7943 125.26C92.9343 125.26 93.9443 125.01 94.8243 124.51C95.7043 123.99 96.3943 123.27 96.8943 122.35C97.4143 121.41 97.6743 120.33 97.6743 119.11C97.6743 117.87 97.4143 116.79 96.8943 115.87C96.3943 114.95 95.7043 114.24 94.8243 113.74C93.9443 113.22 92.9443 112.96 91.8243 112.96C90.7043 112.96 89.7043 113.22 88.8243 113.74C87.9443 114.24 87.2443 114.95 86.7243 115.87C86.2043 116.79 85.9443 117.87 85.9443 119.11C85.9443 120.33 86.2043 121.41 86.7243 122.35C87.2443 123.27 87.9443 123.99 88.8243 124.51C89.7043 125.01 90.6943 125.26 91.7943 125.26ZM112.484 127V106H114.704V127H112.484ZM126.067 127.15C124.587 127.15 123.447 126.75 122.647 125.95C121.847 125.15 121.447 124.02 121.447 122.56V107.77H123.577V122.44C123.577 123.36 123.807 124.07 124.267 124.57C124.747 125.07 125.427 125.32 126.307 125.32C127.247 125.32 128.027 125.05 128.647 124.51L129.397 126.04C128.977 126.42 128.467 126.7 127.867 126.88C127.287 127.06 126.687 127.15 126.067 127.15ZM118.627 113.02V111.25H128.377V113.02H118.627ZM139.408 127.15C137.768 127.15 136.328 126.81 135.088 126.13C133.848 125.43 132.878 124.48 132.178 123.28C131.478 122.06 131.128 120.67 131.128 119.11C131.128 117.55 131.458 116.17 132.118 114.97C132.798 113.77 133.718 112.83 134.878 112.15C136.058 111.45 137.378 111.1 138.838 111.1C140.318 111.1 141.628 111.44 142.768 112.12C143.928 112.78 144.838 113.72 145.498 114.94C146.158 116.14 146.488 117.53 146.488 119.11C146.488 119.21 146.478 119.32 146.458 119.44C146.458 119.54 146.458 119.65 146.458 119.77H132.748V118.18H145.318L144.478 118.81C144.478 117.67 144.228 116.66 143.728 115.78C143.248 114.88 142.588 114.18 141.748 113.68C140.908 113.18 139.938 112.93 138.838 112.93C137.758 112.93 136.788 113.18 135.928 113.68C135.068 114.18 134.398 114.88 133.918 115.78C133.438 116.68 133.198 117.71 133.198 118.87V119.2C133.198 120.4 133.458 121.46 133.978 122.38C134.518 123.28 135.258 123.99 136.198 124.51C137.158 125.01 138.248 125.26 139.468 125.26C140.428 125.26 141.318 125.09 142.138 124.75C142.978 124.41 143.698 123.89 144.298 123.19L145.498 124.57C144.798 125.41 143.918 126.05 142.858 126.49C141.818 126.93 140.668 127.15 139.408 127.15ZM170.504 111.1C171.784 111.1 172.894 111.35 173.834 111.85C174.794 112.33 175.534 113.07 176.054 114.07C176.594 115.07 176.864 116.33 176.864 117.85V127H174.734V118.06C174.734 116.4 174.334 115.15 173.534 114.31C172.754 113.45 171.644 113.02 170.204 113.02C169.124 113.02 168.184 113.25 167.384 113.71C166.604 114.15 165.994 114.8 165.554 115.66C165.134 116.5 164.924 117.52 164.924 118.72V127H162.794V118.06C162.794 116.4 162.394 115.15 161.594 114.31C160.794 113.45 159.674 113.02 158.234 113.02C157.174 113.02 156.244 113.25 155.444 113.71C154.644 114.15 154.024 114.8 153.584 115.66C153.164 116.5 152.954 117.52 152.954 118.72V127H150.824V111.25H152.864V115.51L152.534 114.76C153.014 113.62 153.784 112.73 154.844 112.09C155.924 111.43 157.194 111.1 158.654 111.1C160.194 111.1 161.504 111.49 162.584 112.27C163.664 113.03 164.364 114.18 164.684 115.72L163.844 115.39C164.304 114.11 165.114 113.08 166.274 112.3C167.454 111.5 168.864 111.1 170.504 111.1ZM192.921 116.17H204.021V118.09H192.921V116.17ZM193.161 127H190.941V106H205.341V107.92H193.161V127ZM215.369 127.15C213.849 127.15 212.479 126.81 211.259 126.13C210.059 125.43 209.109 124.48 208.409 123.28C207.709 122.06 207.359 120.67 207.359 119.11C207.359 117.53 207.709 116.14 208.409 114.94C209.109 113.74 210.059 112.8 211.259 112.12C212.459 111.44 213.829 111.1 215.369 111.1C216.929 111.1 218.309 111.44 219.509 112.12C220.729 112.8 221.679 113.74 222.359 114.94C223.059 116.14 223.409 117.53 223.409 119.11C223.409 120.67 223.059 122.06 222.359 123.28C221.679 124.48 220.729 125.43 219.509 126.13C218.289 126.81 216.909 127.15 215.369 127.15ZM215.369 125.26C216.509 125.26 217.519 125.01 218.399 124.51C219.279 123.99 219.969 123.27 220.469 122.35C220.989 121.41 221.249 120.33 221.249 119.11C221.249 117.87 220.989 116.79 220.469 115.87C219.969 114.95 219.279 114.24 218.399 113.74C217.519 113.22 216.519 112.96 215.399 112.96C214.279 112.96 213.279 113.22 212.399 113.74C211.519 114.24 210.819 114.95 210.299 115.87C209.779 116.79 209.519 117.87 209.519 119.11C209.519 120.33 209.779 121.41 210.299 122.35C210.819 123.27 211.519 123.99 212.399 124.51C213.279 125.01 214.269 125.26 215.369 125.26ZM234.267 127.15C232.927 127.15 231.757 126.9 230.757 126.4C229.757 125.9 228.977 125.15 228.417 124.15C227.877 123.15 227.607 121.9 227.607 120.4V111.25H229.737V120.16C229.737 121.84 230.147 123.11 230.967 123.97C231.807 124.81 232.977 125.23 234.477 125.23C235.577 125.23 236.527 125.01 237.327 124.57C238.147 124.11 238.767 123.45 239.187 122.59C239.627 121.73 239.847 120.7 239.847 119.5V111.25H241.977V127H239.937V122.68L240.267 123.46C239.767 124.62 238.987 125.53 237.927 126.19C236.887 126.83 235.667 127.15 234.267 127.15ZM255.953 111.1C257.233 111.1 258.353 111.35 259.313 111.85C260.293 112.33 261.053 113.07 261.593 114.07C262.153 115.07 262.433 116.33 262.433 117.85V127H260.303V118.06C260.303 116.4 259.883 115.15 259.043 114.31C258.223 113.45 257.063 113.02 255.563 113.02C254.443 113.02 253.463 113.25 252.623 113.71C251.803 114.15 251.163 114.8 250.703 115.66C250.263 116.5 250.043 117.52 250.043 118.72V127H247.913V111.25H249.953V115.57L249.623 114.76C250.123 113.62 250.923 112.73 252.023 112.09C253.123 111.43 254.433 111.1 255.953 111.1ZM274.457 127.15C272.957 127.15 271.607 126.81 270.407 126.13C269.227 125.45 268.297 124.51 267.617 123.31C266.937 122.09 266.597 120.69 266.597 119.11C266.597 117.51 266.937 116.11 267.617 114.91C268.297 113.71 269.227 112.78 270.407 112.12C271.607 111.44 272.957 111.1 274.457 111.1C275.837 111.1 277.067 111.41 278.147 112.03C279.247 112.65 280.117 113.56 280.757 114.76C281.417 115.94 281.747 117.39 281.747 119.11C281.747 120.81 281.427 122.26 280.787 123.46C280.147 124.66 279.277 125.58 278.177 126.22C277.097 126.84 275.857 127.15 274.457 127.15ZM274.607 125.26C275.727 125.26 276.727 125.01 277.607 124.51C278.507 123.99 279.207 123.27 279.707 122.35C280.227 121.41 280.487 120.33 280.487 119.11C280.487 117.87 280.227 116.79 279.707 115.87C279.207 114.95 278.507 114.24 277.607 113.74C276.727 113.22 275.727 112.96 274.607 112.96C273.507 112.96 272.517 113.22 271.637 113.74C270.757 114.24 270.057 114.95 269.537 115.87C269.017 116.79 268.757 117.87 268.757 119.11C268.757 120.33 269.017 121.41 269.537 122.35C270.057 123.27 270.757 123.99 271.637 124.51C272.517 125.01 273.507 125.26 274.607 125.26ZM280.547 127V122.26L280.757 119.08L280.457 115.9V104.74H282.587V127H280.547Z" fill="#D95650"/>
</g>
<defs>
<clipPath id="clip0_11_30">
<rect width="524.67" height="418.271" fill="white"/>
</clipPath>
</defs>
</svg>
